# xmcd
#
# Track frame offsets: 
#        150
#        11775
#        25537
#        35550
#        49725
#        61050
#        67275
#        79612
#        93263
#        104926
#
# Disc length: 1555 seconds
#
# Revision: 3
# Processed by: cddbd v1.5.1PL2 Copyright (c) Steve Scherf et al.
# Submitted via: ExactAudioCopy v0.90b4
#
DISCID=8106110a
DTITLE=Various Artist - Todos os Fados [CD2]
DYEAR=2005
DGENRE=Fado
TTITLE0=Teresa Silva Carvalho - Sol Nulo Dos Dias Vãos
TTITLE1=Joaquim Silveirinha - Chamou-Me Louco
TTITLE2=Fernanda Maria - Ausência
TTITLE3=Manuela Cavaco - Avé Maria Fadista
TTITLE4=Fernanda Maria - Lá Porque Tens Cinco Pedras
TTITLE5=Adelina Ramos - Ouvi Cantar O Ginguinha
TTITLE6=Manuel De Almeida - Fado Antigo
TTITLE7=Maria Teresa De Noronha - Fado Em Cinco Estilos
TTITLE8=José Pracana - Pelas Ruas Da Cidade
TTITLE9=João Ferreira Rosa - Pedi A Deus
EXTD=YEAR: 2005
EXTT0=
EXTT1=
EXTT2=
EXTT3=
EXTT4=
EXTT5=
EXTT6=
EXTT7=
EXTT8=
EXTT9=
PLAYORDER=
